<svg style="fill-rule:nonzero;clip-rule:evenodd;stroke-linecap:round;stroke-linejoin:round" viewBox="0 0 820 190" xml:space="preserve" xmlns="http://www.w3.org/2000/svg" xmlns:vectornator="http://vectornator.io"><g vectornator:layerName="레이어 1" stroke="#000" stroke-linecap="square" stroke-linejoin="miter"><path d="M320 176h16v16h-16v-16Z"/><path d="M320 176h16v16h-16v-16Z"/><path d="M320 176h16v16h-16v-16ZM336 176h16-16ZM336 176h16v16h-16v-16ZM352 176h16v16h-16v-16ZM384 176h0v16h0v-16ZM368 176h32v16h-32v-16ZM400 176h32v16h-32v-16ZM432 176h16v16h-16v-16ZM448 176h32v16h-32v-16ZM496 176h0v16h0v-16ZM480 192h16-16ZM480 176h16-16ZM480 176h16v16h-16v-16ZM496 176h16v16h-16v-16ZM512 176h16v16h-16v-16ZM528 176h16v16h-16v-16ZM544 176h32v16h-32v-16ZM576 176h16v16h-16v-16ZM592 176h16v16h-16v-16ZM608 176h16v16h-16v-16ZM640 176h0v16h0v-16ZM624 176h0v16h0v-16ZM624 176h16v16h-16v-16ZM304 176h16v16h-16v-16ZM288 176h16v16h-16v-16ZM288 176h0v16h0v-16ZM272 176h16v16h-16v-16ZM256 176h16v16h-16v-16ZM240 176h16v16h-16v-16ZM224 192h16-16ZM224 192h16-16ZM224 176h16v16h-16v-16ZM208 176h16v16h-16v-16ZM192 176h16v16h-16v-16ZM176 176h16v16h-16v-16ZM160 176h16v16h-16v-16ZM160 176h0v16h0v-16ZM144 176h0v16h0v-16ZM144 176h16v16h-16v-16ZM128 192h16-16ZM128 176h0v16h0v-16ZM144 176h0v16h0v-16ZM128 176h16v16h-16v-16ZM640 176h16v16h-16v-16ZM704 176h16v16h-16v-16ZM688 176h16v16h-16v-16ZM672 176h16v16h-16v-16ZM656 176h16v16h-16v-16ZM736 160h0v16h0v-16ZM720 161.254h14.746V176H720v-14.746ZM752 144h0v16h0v-16ZM736 144h16v16h-16v-16ZM752 136h8v8h-8v-8ZM768 128h0v16h0v-16ZM752 128h16-16Z"/><path d="M752 136h8v8h-8v-8Z"/><path d="M752 128h16v16h-16v-16ZM768 112h16v16h-16v-16ZM720 112h48v16h-48v-16ZM704 96h16v16h-16V96ZM688 80h0v16h0V80ZM688 80h16v16h-16V80ZM672 64h16v16h-16V64ZM656 48h0v16h0V48ZM656 48h16v16h-16V48ZM640 32h16v16h-16V32ZM224 16h16v16h-16V16ZM624 16h16v16h-16V16ZM240 16h384v16H240V16ZM176 16h48v16h-48V16ZM144 48h16v16h-16V48ZM128 64h16v16h-16V64ZM112 80h16v16h-16V80ZM96 96h16v16H96V96ZM160 32h16v16h-16V32ZM80 112h16v16H80v-16ZM32 112h48v16H32v-16ZM48 128h16v16H48v-16ZM64 144h16v16H64v-16ZM80 160h16v16H80v-16ZM96 176h16v16H96v-16ZM112 176h16v16h-16v-16Z"/></g><g vectornator:layerName="레이어 2" fill="#040c1b" stroke="#030a17" stroke-linecap="square" stroke-linejoin="miter"><path d="M224 16h416v176H224V16ZM128 176h96v16h-96v-16ZM128 112h96v64h-96v-64ZM144 96h80v16h-80V96ZM160 80h64v16h-64V80ZM176 64h48v16h-48V64ZM192 48h32v16h-32V48ZM208 32h16v16h-16V32Z"/><path d="M64 112h80v16H64v-16ZM80 128h48v16H80v-16ZM96 144h32-32ZM96 144h32v16H96v-16ZM128 160h16-16ZM112 160h16v16h-16v-16ZM640 32h16v160h-16V32ZM656 96h64v96h-64V96ZM656 48h16v48h-16V48ZM672 64h16v32h-16V64ZM688 80h16v16h-16V80ZM720 112h16v64h-16v-64ZM736 112h16v48h-16v-48ZM752 112h16v32h-16v-32ZM768 112h16v16h-16v-16ZM176 32h32v16h-32V32ZM160 48h32v16h-32V48ZM144 64h32v16h-32V64ZM128 80h32v16h-32V80ZM112 96h32v16h-32V96ZM64 128h16v16H64v-16ZM80 144h16v16H80v-16ZM96 160h16v16H96v-16Z"/></g><g vectornator:layerName="레이어 3" fill="#1a1f31" stroke="#191d2e" stroke-linecap="square" stroke-linejoin="miter"><path d="M176 16h464v16H176V16ZM400 32h16v160h-16V32ZM160 32h16v16h-16V32ZM144 48h16v16h-16V48ZM128 64h16v16h-16V64ZM112 80h16v16h-16V80ZM96 96h16v16H96V96ZM32 112h64v16H32v-16ZM640 32h16v16h-16V32ZM656 48h16v16h-16V48ZM672 64h16v16h-16V64ZM688 80h16v16h-16V80ZM704 96h16v16h-16V96ZM720 112h64v16h-64v-16Z"/></g><g vectornator:layerName="레이어 4" stroke-linecap="square" stroke-linejoin="miter"><path d="M192 32h16v16h-16V32ZM192 48h16v16h-16V48ZM176 64h16v32h-16V64ZM160 96h16v32h-16V96ZM144 128h16v32h-16v-32Z" fill="#181d2d" stroke="#1a1f31"/><path d="M128 160h16v32h-16v-32ZM240 32h16v32h-16V32ZM224 64h16v32h-16V64ZM208 96h16v32h-16V96ZM192 128h16v32h-16v-32ZM176 160h16v32h-16v-32ZM288 32h16v32h-16V32ZM272 64h16v32h-16V64ZM256 96h16v32h-16V96ZM240 128h16v32h-16v-32ZM224 160h16v32h-16v-32ZM336 32h16v32h-16V32ZM320 64h16v32h-16V64ZM304 96h16v32h-16V96ZM288 128h16v32h-16v-32ZM384 32h16v32h-16V32ZM368 64h16v32h-16V64ZM352 96h16v32h-16V96ZM336 128h16v32h-16v-32ZM320 160h16v32h-16v-32ZM272 160h16v32h-16v-32ZM416 32h16v32h-16V32ZM432 64h16v32h-16V64ZM448 96h16v32h-16V96ZM464 128h16v32h-16v-32ZM480 160h16v32h-16v-32ZM464 32h16v32h-16V32ZM480 64h16v32h-16V64ZM496 96h16v32h-16V96ZM512 128h16v32h-16v-32ZM528 160h16v32h-16v-32ZM512 32h16v32h-16V32ZM528 64h16v32h-16V64ZM544 96h16v32h-16V96ZM560 128h16v32h-16v-32ZM576 160h16v32h-16v-32ZM560 32h16v32h-16V32ZM576 64h16v32h-16V64ZM592 96h16v32h-16V96ZM608 128h16v32h-16v-32ZM624 160h16v32h-16v-32ZM608 32h16v32h-16V32ZM624 64h16v32h-16V64ZM640 96h16v32h-16V96ZM656 128h16v32h-16v-32ZM672 160h16v32h-16v-32Z" fill="#181d2d" stroke="#181d2d"/><path d="M32 112h16v16H32v-16ZM160 0h16v16h-16V0ZM176 16h16v16h-16V16ZM624 16h16v16h-16V16ZM640 0h16v16h-16V0ZM400 176h16v16h-16v-16ZM320 176h16v16h-16v-16ZM272 176h16-16ZM272 176h16v16h-16v-16ZM224 160h16v16h-16v-16ZM176 160h16v16h-16v-16ZM128 160h16v16h-16v-16ZM480 176h16v16h-16v-16ZM528 176h16v16h-16v-16ZM576 176h16v16h-16v-16ZM624 160h16v16h-16v-16ZM672 160h0v16h0v-16ZM672 160h16v16h-16v-16ZM576 160h16v16h-16v-16Z" fill="#2d405c" stroke="#2e415e"/><path d="M224 176h16v16h-16v-16ZM176 176h16v16h-16v-16ZM128 176h16v16h-16v-16ZM576 176h16v16h-16v-16ZM624 176h16v16h-16v-16ZM672 176h16v16h-16v-16ZM272 176h16v16h-16v-16ZM336 176h0v16h0v-16ZM320 176h16v16h-16v-16ZM480 176h16v16h-16v-16Z" fill="#040c1b" stroke="#040c1b"/><path d="M528 176h16v16h-16v-16ZM480 160h16v16h-16v-16ZM528 160h16v16h-16v-16ZM400 160h16v16h-16v-16ZM320 160h16-16ZM320 160h16v16h-16v-16Z" fill="#2d405c" stroke="#2d405c"/><path d="M272 160h16v16h-16v-16ZM528 176h16v16h-16v-16Z" fill="#040c1b" stroke="#040c1b"/><path d="M400 176h16v16h-16v-16Z" fill="#2d405c" stroke="#2d405c"/><path d="M400 176h16v16h-16v-16ZM272 160h16v16h-16v-16Z" fill="#2d405c" stroke="#2d405c"/><path d="M400 176h16v16h-16v-16Z" fill="#040c1b" stroke="#040c1b"/><path d="M272 176h336v16H272v-16Z" fill="#040c1b" stroke="#040c1b"/><path d="M96 176h624v16H96v-16Z" stroke="#000"/></g></svg>